<svg width="751" height="326" viewBox="0 0 751 326" fill="none" xmlns="http://www.w3.org/2000/svg">
<path d="M71.2069 271.88C71.2069 264.8 64.3669 259.76 57.8869 254.24C47.5669 245.24 42.0469 239 42.0469 228.56C42.0469 209.48 61.9669 200.48 77.8069 200.48C93.1669 200.48 101.927 205.52 101.927 214.76C101.927 219.08 99.6469 223.88 96.2869 226.4C91.0069 228.56 85.7269 230.24 78.5269 230.96L78.1669 229.4C83.0869 226.4 85.6069 221.24 85.6069 215.48C85.6069 208.28 82.0069 203 74.3269 203C66.0469 203 61.2469 209.84 61.2469 218C61.2469 227.84 64.6069 233 72.5269 239.72C82.1269 247.76 89.3269 253.04 89.3269 262.88C89.3269 278.24 73.2469 285.92 59.9269 285.92C45.7669 285.92 33.7669 281.36 27.1669 272.84C29.5669 265.76 32.4469 259.88 36.4069 254.12H37.6069C39.5269 266.6 46.9669 283.16 59.6869 283.16C66.1669 283.16 71.2069 278.48 71.2069 271.88ZM166.357 265.28H167.197V268.52C160.957 278.36 148.117 285.92 132.157 285.92C115.837 285.92 105.277 276.08 105.277 257.24C105.277 227.24 128.077 200.48 156.757 200.48C170.677 200.48 179.197 204.44 179.197 214.04C179.197 218 176.917 222.92 173.797 225.56C168.637 227.6 163.117 228.92 156.757 230.12L156.397 228.68C160.477 225.44 162.877 220.16 162.877 214.64C162.877 207.56 159.997 203.48 153.997 203.48C140.677 203.48 126.877 228.92 126.877 253.4C126.877 266.6 133.477 275.72 144.277 275.72C152.077 275.72 159.637 272.72 166.357 265.28ZM267.639 201.56C267.639 218.72 246.519 239.72 225.639 239.72C215.319 239.72 208.119 233.36 208.119 223.88C208.119 208.16 220.119 198.68 232.839 198.68C245.919 198.68 253.239 208.4 255.759 221.24C259.719 216.92 262.359 211.88 262.359 207.2C262.359 201.2 260.919 197.96 257.559 194.48L258.039 194C260.799 194.36 263.439 194.6 265.719 195.8C267.039 196.52 267.639 198.8 267.639 201.56ZM212.079 223.28C212.079 231.68 217.719 236.72 227.079 236.72C229.719 236.72 232.359 236.12 235.119 235.16C235.119 219.08 232.599 204.8 224.079 204.8C218.199 204.8 212.079 212.12 212.079 223.28ZM234.999 240.56C243.759 238.52 252.399 233.24 256.719 226.88V230.36C256.719 260.48 227.319 285.92 202.719 285.92C188.079 285.92 176.559 278 176.559 259.76C176.559 243.68 187.359 229.64 198.039 222.8C200.559 225.08 203.199 228.8 205.119 232.28C201.039 238.76 198.759 249.44 198.759 258.68C198.759 270.44 202.479 281.6 211.359 281.6C222.759 281.6 234.399 262.04 234.999 240.56ZM310.424 269.72C306.824 280.88 299.984 285.92 288.944 285.92C282.104 285.92 276.824 282.32 273.704 277.16L274.904 275.36C276.704 277.76 280.184 279.92 282.584 279.92C285.584 279.92 287.744 277.52 289.424 272.36C294.584 257 302.264 229.16 306.344 204.92H299.984C293.144 204.92 286.784 214.64 281.864 224.96C278.864 231.2 275.744 239.84 273.944 246.32H271.424C271.784 233.12 272.384 216.68 273.824 209.24C274.424 204.32 276.704 201.92 281.504 201.92C287.144 201.92 297.224 202.4 308.384 202.4H326.504C337.784 202.4 349.064 201.92 354.584 201.92C357.704 201.92 359.744 203.48 359.744 206C359.744 213.44 348.464 234.92 342.824 246.32H340.184C341.504 237.56 342.464 228.08 342.464 220.28C342.464 211.28 340.904 204.92 333.584 204.92H326.504C323.504 224 316.424 252.08 310.424 269.72ZM418.622 277.16C416.942 282.56 413.822 284.24 405.902 284.24C397.502 284.24 386.582 283.76 376.622 283.76C369.902 283.76 363.782 283.88 355.862 284.12L355.262 282.44C360.542 276.44 371.222 239.36 376.022 210.2L363.782 203.6L364.022 202.28C370.622 201.44 385.262 200.6 395.102 200.48L397.262 201.56C395.222 224.96 383.462 268.04 375.902 281.12H385.502C389.342 281.12 393.062 280.4 396.182 278.84C404.102 275 412.502 264.8 420.782 250.76H423.302C421.622 263.6 420.182 272 418.622 277.16ZM471.002 251.48C461.642 251.48 449.882 251.12 444.602 250.4C443.162 248.24 442.562 245.84 442.562 243.44L443.042 243.08C447.482 246.2 455.522 247.52 463.562 248C470.402 239.24 478.322 227.36 486.242 212.84L472.922 203.84L473.162 202.16C479.642 202.52 485.402 202.76 495.002 202.76C501.482 202.76 512.162 202.64 516.722 202.28L517.682 203.72C512.282 224.48 510.482 249.8 510.482 267.56C510.482 275 512.042 279.56 515.882 279.56C518.042 279.56 519.842 278.84 521.402 276.92L521.762 277.04L521.402 279.68C517.802 283.88 511.562 285.92 504.362 285.92C495.002 285.92 489.722 280.64 489.722 269C489.722 264.2 490.082 257.96 490.562 251.12C484.562 251.36 477.122 251.48 471.002 251.48ZM472.082 248.12C478.442 248.12 484.802 248 490.802 247.52C492.002 233.84 494.042 218.24 496.082 207.2H492.962C485.042 223.4 478.082 237.2 472.082 248.12ZM459.362 253.16H469.322C457.082 275.12 447.362 285.92 432.002 285.92C425.642 285.92 420.602 283.16 418.802 277.88L420.002 276.2C421.082 277.64 422.882 278.72 424.682 278.72C431.762 278.72 443.882 271.64 459.362 253.16ZM598.657 284C592.177 284.72 585.097 285.32 577.297 285.92L575.857 285.08C570.937 267.32 565.657 235.52 563.857 206.36H562.537L559.777 228.8C554.977 268.4 547.537 285.92 534.337 285.92C527.257 285.92 522.697 284 518.977 280.04L520.177 278.36C521.377 279.8 523.417 280.76 525.337 280.76C532.297 280.76 545.017 259.64 553.777 229.28L558.217 214.64L543.217 203.96L543.457 202.28C549.817 202.64 555.457 202.88 564.817 202.88C571.177 202.88 578.737 202.76 583.057 202.52L584.137 203.96C585.457 227.84 590.137 262.4 595.297 280.52H596.497L597.577 267.8C601.417 220.64 607.897 200.48 622.057 200.48C629.137 200.48 634.777 203 637.417 206.36L636.217 208.04C635.017 206.72 633.097 205.64 631.177 205.64C623.617 205.64 609.697 233.96 601.897 269.48L598.657 284ZM708.841 227.6C708.841 259.4 686.041 284.24 653.401 284.24C647.881 284.24 636.481 284 634.201 284C630.721 284 626.521 284 622.801 284.12L622.081 282.44C628.561 275.36 640.681 231.2 643.801 210.56L631.561 203.72L631.801 201.92C636.721 202.16 645.361 202.16 650.401 202.16C659.761 202.16 671.401 201.68 680.401 201.68C697.081 201.68 708.841 209.6 708.841 227.6ZM670.921 204.92H664.321C662.161 224.84 652.441 263.84 644.521 279.2C648.601 280.88 653.401 281.48 657.601 281.48C677.161 281.48 687.841 253.52 687.841 230.12C687.841 216.32 683.401 204.92 670.921 204.92Z" fill="#0B0B0B"/>
<path d="M69.3477 115.16C67.6677 120.56 64.4277 122.24 56.2677 122.24C46.9077 122.24 30.7077 122 19.9077 122C15.3477 122 11.1477 122 6.70766 122.12L6.10766 120.32C11.5077 114.44 23.8677 72.8 27.4677 48.44L15.2277 41.72L15.4677 39.92C22.9077 40.16 40.0677 40.4 53.7477 40.4C65.0277 40.4 76.4277 39.8 82.3077 39.8C85.7877 39.8 87.5877 41.24 87.5877 44C87.5877 48.32 81.5877 59 73.4277 70.76H70.9077C71.7477 61.88 71.6277 54.68 70.9077 50C69.9477 45.08 67.5477 42.92 62.5077 42.92H47.9877C46.7877 54.08 43.9077 68.24 40.4277 81.56H44.2677C50.3877 81.56 59.3877 77.72 66.1077 72.2L67.0677 72.68C65.8677 78.92 63.4677 86.48 60.8277 92.6L59.8677 92.84C56.7477 87.92 49.1877 83.84 43.6677 83.84H39.8277C35.7477 99.32 30.9477 113.24 27.1077 119.48H36.2277C39.5877 119.48 42.8277 118.76 46.6677 116.84C55.1877 112.4 64.7877 102.68 71.2677 91.04H73.6677C71.2677 108.2 70.6677 110.72 69.3477 115.16ZM171.04 65.6C171.04 97.4 148.24 122.24 115.6 122.24C110.08 122.24 98.6802 122 96.4002 122C92.9202 122 88.7202 122 85.0002 122.12L84.2802 120.44C90.7602 113.36 102.88 69.2 106 48.56L93.7602 41.72L94.0002 39.92C98.9202 40.16 107.56 40.16 112.6 40.16C121.96 40.16 133.6 39.68 142.6 39.68C159.28 39.68 171.04 47.6 171.04 65.6ZM133.12 42.92H126.52C124.36 62.84 114.64 101.84 106.72 117.2C110.8 118.88 115.6 119.48 119.8 119.48C139.36 119.48 150.04 91.52 150.04 68.12C150.04 54.32 145.6 42.92 133.12 42.92ZM202.312 107.72C198.592 118.88 191.752 123.92 180.832 123.92C173.872 123.92 168.592 120.32 165.472 115.16L166.672 113.36C168.472 115.76 171.952 117.92 174.352 117.92C177.352 117.92 179.392 115.52 181.192 110.36C186.712 94.88 192.952 72.08 197.152 48.2L185.032 41.72L185.272 40.28C192.592 39.44 207.952 38.6 216.352 38.48L218.392 39.44C217.792 50.96 209.632 86.12 202.312 107.72ZM290.66 122C284.18 122.72 277.1 123.32 269.3 123.92L267.86 123.08C262.94 105.32 257.66 73.52 255.86 44.36H254.54L251.78 66.8C246.98 106.4 239.54 123.92 226.34 123.92C219.26 123.92 214.7 122 210.98 118.04L212.18 116.36C213.38 117.8 215.42 118.76 217.34 118.76C224.3 118.76 237.02 97.64 245.78 67.28L250.22 52.64L235.22 41.96L235.46 40.28C241.82 40.64 247.46 40.88 256.82 40.88C263.18 40.88 270.74 40.76 275.06 40.52L276.14 41.96C277.46 65.84 282.14 100.4 287.3 118.52H288.5L289.58 105.8C293.42 58.64 299.9 38.48 314.06 38.48C321.14 38.48 326.78 41 329.42 44.36L328.22 46.04C327.02 44.72 325.1 43.64 323.18 43.64C315.62 43.64 301.7 71.96 293.9 107.48L290.66 122ZM392.805 92.6C392.805 111.44 365.325 122.12 345.765 122.12C340.605 122.12 331.605 122 326.085 122C321.765 122 318.045 122 314.325 122.12L313.725 120.44C319.725 113.84 331.365 71.36 335.085 48.68L322.965 41.72L323.205 40.28C328.245 39.56 348.525 38.48 354.405 38.48L356.205 39.56C355.965 44.6 353.805 53.24 350.085 61.52L351.405 62.24C357.645 49.16 366.165 38.48 380.805 38.48C390.285 38.48 396.765 42.92 396.765 51.2C396.765 67.4 380.325 76.28 363.645 81.8L364.005 83.24C368.805 81.68 373.725 80.6 378.165 80.6C386.325 80.6 392.805 83.72 392.805 92.6ZM370.845 45.2C364.485 45.2 358.485 53.12 352.245 66.92C347.565 84.32 341.325 105.32 336.765 116.96C340.725 118.88 344.805 119.48 347.925 119.48C363.285 119.48 372.045 106.28 372.045 96.32C372.045 87.92 366.525 86.12 359.085 86.12C357.285 86.12 355.365 86.48 353.565 86.84V84.44C365.085 79.88 377.325 65.12 377.325 52.88C377.325 47.96 374.685 45.2 370.845 45.2ZM467.259 96.32C458.019 112.52 446.019 123.92 431.139 123.92C413.259 123.92 404.619 114.68 404.619 102.44C404.619 98.48 406.299 91.4 408.459 83.84C411.819 70.52 415.299 56.36 416.259 48.08L404.259 41.6L404.379 40.28C410.979 39.44 428.859 38.48 436.059 38.48L437.739 39.68C436.419 53.96 433.179 68.6 430.179 81.32C427.179 94.16 424.539 105.08 424.539 111.08C424.539 117.08 428.019 120.2 434.379 120.2C446.379 120.2 454.539 109.88 460.179 95.6C464.259 85.28 465.939 72.92 465.939 64.04C465.939 52.4 461.979 45.2 455.859 41.96L455.979 40.52C462.459 39.32 469.659 38.6 474.819 38.48C477.939 40.52 479.979 44.36 479.979 49.88C479.979 62.6 475.299 81.8 467.259 96.32ZM567.686 137.84C562.286 142.04 554.726 144.2 548.726 144.2C536.006 144.2 528.926 131.72 524.606 115.64C522.086 105.68 520.766 94.52 519.806 85.16C530.606 82.76 548.726 68 548.726 53.12C548.726 48.08 546.686 44.72 541.526 44.72C534.806 44.72 524.006 54.92 519.566 70.88C516.326 83.36 512.006 97.04 508.406 107.72C504.566 118.88 497.846 123.92 486.926 123.92C479.966 123.92 474.686 120.32 471.566 115.16L472.766 113.36C474.566 115.76 478.046 117.92 480.446 117.92C483.446 117.92 485.486 115.52 487.286 110.36C492.806 94.88 499.046 72.08 503.246 48.2L491.126 41.72L491.366 40.28C498.686 39.44 514.046 38.6 522.446 38.48L524.486 39.44C524.246 44.12 521.726 53 517.886 61.64L519.326 62.6C525.086 49.04 536.846 38.48 552.566 38.48C565.286 38.48 570.086 46.52 570.086 53.72C570.086 72.92 543.326 82.52 526.886 85.4L527.246 86.96C530.726 86.96 535.646 86.48 539.486 85.88L540.086 86.36C541.766 104.36 549.926 138.56 560.126 138.56C562.526 138.56 565.046 137.36 567.326 135.8L567.686 136.04V137.84ZM571.421 95.24C571.421 65.24 594.221 38.48 622.901 38.48C637.541 38.48 646.421 42.44 646.421 52.04C646.421 56 644.141 60.92 641.021 63.56C635.861 65.6 630.341 66.92 623.981 68.12L623.621 66.68C627.701 63.44 630.101 58.16 630.101 52.64C630.101 45.56 626.861 41.48 620.501 41.48C606.821 41.48 593.021 66.92 593.021 91.4C593.021 104.96 599.501 113.72 610.061 113.72C616.541 113.72 621.941 109.88 626.981 103.4C631.661 97.4 635.501 88.52 637.661 78.08H641.621C638.021 95.12 631.061 124.64 626.261 139.76C623.501 148.52 618.221 152 610.661 152C602.621 152 593.141 150.2 586.181 146.48V144.92C590.741 145.4 595.421 144.44 599.981 142.4C613.301 137.36 622.661 125.36 629.381 107.96L627.941 107.48C621.461 117.32 611.861 123.92 598.301 123.92C581.501 123.92 571.421 114.08 571.421 95.24ZM675.376 89.48C666.496 89.48 654.736 89.12 649.576 88.4C648.136 86.24 647.536 83.84 647.536 81.44L648.016 81.08C651.616 83.48 657.376 84.92 662.776 85.52C666.016 73.52 669.016 60.44 671.176 48.2L659.056 41.72L659.296 40.28C666.616 39.44 681.976 38.6 690.376 38.48L692.416 39.44C691.936 47.6 687.856 67.52 682.696 86C688.936 85.88 697.576 85.64 704.296 85.16C706.816 75.32 710.176 64.52 713.536 54.56C717.136 43.4 724.336 38.36 735.016 38.36C741.856 38.36 747.136 42.08 750.256 47.12L749.056 48.92C747.256 46.52 743.776 44.36 741.376 44.36C738.376 44.36 736.216 46.88 734.536 51.92C728.776 68.96 718.576 104.84 718.576 117.2C718.576 117.56 718.576 118.76 718.696 119C725.416 117.2 734.416 110.72 740.056 104.96L740.416 105.2V108.08C732.376 116.6 720.496 123.56 711.976 123.56C704.056 123.56 699.256 119.12 699.256 112.04C699.256 107.12 700.936 98.72 703.336 88.76C695.656 89.36 684.376 89.48 675.376 89.48ZM661.216 91.4C667.096 91.52 674.656 91.52 681.256 91.52C679.576 97.28 678.016 102.8 676.336 107.72C672.496 118.88 665.896 123.92 654.856 123.92C647.896 123.92 642.616 120.32 639.496 115.16L640.696 113.36C642.496 115.76 645.976 117.92 648.376 117.92C651.376 117.92 653.416 115.52 655.216 110.36C657.136 105.2 659.056 98.84 661.216 91.4Z" fill="#0B0B0B"/>
</svg>
