<svg width="32" height="32" viewBox="0 0 32 32" fill="none" xmlns="http://www.w3.org/2000/svg">
<rect width="32" height="32" fill="black"/>
<path d="M9.70586 13.1C8.93919 13.1 8.32919 12.8933 7.87586 12.48C7.42919 12.06 7.20586 11.4967 7.20586 10.79H8.70586C8.70586 11.0967 8.79586 11.3433 8.97586 11.53C9.15586 11.71 9.39919 11.8 9.70586 11.8C10.0125 11.8 10.2559 11.7133 10.4359 11.54C10.6159 11.36 10.7059 11.1167 10.7059 10.81V7.05H8.65586V5.7H12.2059V10.81C12.2059 11.5167 11.9825 12.0767 11.5359 12.49C11.0892 12.8967 10.4792 13.1 9.70586 13.1ZM16.002 13.1C15.5153 13.1 15.092 13.01 14.732 12.83C14.372 12.6433 14.092 12.3867 13.892 12.06C13.6986 11.7267 13.602 11.34 13.602 10.9V9.6C13.602 9.16 13.6986 8.77667 13.892 8.45C14.092 8.11667 14.372 7.86 14.732 7.68C15.092 7.49333 15.5153 7.4 16.002 7.4C16.4953 7.4 16.9186 7.49333 17.272 7.68C17.632 7.86 17.9086 8.11667 18.102 8.45C18.302 8.77667 18.402 9.16 18.402 9.6V10.9C18.402 11.34 18.302 11.7267 18.102 12.06C17.9086 12.3867 17.632 12.6433 17.272 12.83C16.9186 13.01 16.4953 13.1 16.002 13.1ZM16.002 11.8C16.2953 11.8 16.5186 11.7233 16.672 11.57C16.8253 11.41 16.902 11.1867 16.902 10.9V9.6C16.902 9.30667 16.8253 9.08333 16.672 8.93C16.5186 8.77667 16.2953 8.7 16.002 8.7C15.7153 8.7 15.492 8.77667 15.332 8.93C15.1786 9.08333 15.102 9.30667 15.102 9.6V10.9C15.102 11.1867 15.1786 11.41 15.332 11.57C15.492 11.7233 15.7153 11.8 16.002 11.8ZM22.008 13.1C21.5214 13.1 21.0947 13.01 20.728 12.83C20.368 12.6433 20.088 12.3867 19.888 12.06C19.6947 11.7267 19.598 11.34 19.598 10.9V9.6C19.598 9.16 19.6947 8.77667 19.888 8.45C20.088 8.11667 20.368 7.86 20.728 7.68C21.0947 7.49333 21.5214 7.4 22.008 7.4C22.4947 7.4 22.9147 7.49333 23.268 7.68C23.628 7.86 23.9047 8.11667 24.098 8.45C24.298 8.77667 24.398 9.16 24.398 9.6V10.6H21.028V10.9C21.028 11.2467 21.1114 11.51 21.278 11.69C21.4447 11.8633 21.6947 11.95 22.028 11.95C22.2614 11.95 22.448 11.91 22.588 11.83C22.7347 11.75 22.8314 11.64 22.878 11.5H24.348C24.228 11.98 23.9547 12.3667 23.528 12.66C23.108 12.9533 22.6014 13.1 22.008 13.1ZM22.968 9.83V9.58C22.968 9.24 22.888 8.98 22.728 8.8C22.5747 8.62 22.3347 8.53 22.008 8.53C21.6814 8.53 21.4347 8.62333 21.268 8.81C21.108 8.99667 21.028 9.26 21.028 9.6V9.75L23.068 9.73L22.968 9.83Z" fill="white"/>
<path d="M1.65977 26V18.7H3.15977V21.57H3.85977L5.07977 18.7H6.69977L5.17977 22.16L6.75977 26H5.11977L3.86977 22.87H3.15977V26H1.65977Z" fill="#75BD21"/>
<path d="M10.0159 26.1C9.52919 26.1 9.10253 26.01 8.73586 25.83C8.37586 25.6433 8.09586 25.3867 7.89586 25.06C7.70253 24.7267 7.60586 24.34 7.60586 23.9V22.6C7.60586 22.16 7.70253 21.7767 7.89586 21.45C8.09586 21.1167 8.37586 20.86 8.73586 20.68C9.10253 20.4933 9.52919 20.4 10.0159 20.4C10.5025 20.4 10.9225 20.4933 11.2759 20.68C11.6359 20.86 11.9125 21.1167 12.1059 21.45C12.3059 21.7767 12.4059 22.16 12.4059 22.6V23.6H9.03586V23.9C9.03586 24.2467 9.11919 24.51 9.28586 24.69C9.45253 24.8633 9.70253 24.95 10.0359 24.95C10.2692 24.95 10.4559 24.91 10.5959 24.83C10.7425 24.75 10.8392 24.64 10.8859 24.5H12.3559C12.2359 24.98 11.9625 25.3667 11.5359 25.66C11.1159 25.9533 10.6092 26.1 10.0159 26.1ZM10.9759 22.83V22.58C10.9759 22.24 10.8959 21.98 10.7359 21.8C10.5825 21.62 10.3425 21.53 10.0159 21.53C9.68919 21.53 9.44253 21.6233 9.27586 21.81C9.11586 21.9967 9.03586 22.26 9.03586 22.6V22.75L11.0759 22.73L10.9759 22.83Z" fill="#FFC728"/>
<path d="M13.822 26V20.5H15.272V21.55H15.712L15.272 21.9C15.272 21.44 15.412 21.0767 15.692 20.81C15.9786 20.5367 16.362 20.4 16.842 20.4C17.402 20.4 17.852 20.59 18.192 20.97C18.532 21.3433 18.702 21.8533 18.702 22.5V23H17.102V22.6C17.102 22.3133 17.0253 22.0933 16.872 21.94C16.7253 21.78 16.5086 21.7 16.222 21.7C15.9353 21.7 15.712 21.7867 15.552 21.96C15.3986 22.1333 15.322 22.3867 15.322 22.72V26H13.822Z" fill="#CF0F2B"/>
<path d="M22.568 26.1C22.1147 26.1 21.748 25.97 21.468 25.71C21.1947 25.4433 21.058 25.0733 21.058 24.6L21.458 24.95H21.108V26H19.658V18.7H21.158V20.2L21.108 21.55H21.458L21.058 21.9C21.058 21.4267 21.1947 21.06 21.468 20.8C21.748 20.5333 22.1147 20.4 22.568 20.4C23.1214 20.4 23.5647 20.5967 23.898 20.99C24.2314 21.3767 24.398 21.8967 24.398 22.55V23.95C24.398 24.61 24.2314 25.1333 23.898 25.52C23.5647 25.9067 23.1214 26.1 22.568 26.1ZM22.028 24.8C22.308 24.8 22.5214 24.7233 22.668 24.57C22.8214 24.41 22.898 24.1867 22.898 23.9V22.6C22.898 22.3133 22.8214 22.0933 22.668 21.94C22.5214 21.78 22.308 21.7 22.028 21.7C21.7547 21.7 21.5414 21.78 21.388 21.94C21.2347 22.0933 21.158 22.3133 21.158 22.6V23.9C21.158 24.1867 21.2347 24.41 21.388 24.57C21.5414 24.7233 21.7547 24.8 22.028 24.8Z" fill="#B01CAB"/>
<path d="M26.5641 27.8L27.3141 25.73L25.1841 20.5H26.8141L27.7141 22.9C27.7808 23.08 27.8441 23.3 27.9041 23.56C27.9641 23.8133 28.0108 24.02 28.0441 24.18C28.0775 24.02 28.1241 23.8133 28.1841 23.56C28.2441 23.3 28.3075 23.08 28.3741 22.9L29.2441 20.5H30.8041L28.1341 27.8H26.5641Z" fill="#00A1DE"/>
</svg>
